<svg xmlns="http://www.w3.org/2000/svg" viewBox="0 0 200 200" width="200" height="200">
  <!-- 背景圆形 -->
  <circle cx="100" cy="100" r="95" fill="#FFF0F5" />
  <circle cx="100" cy="100" r="85" fill="#FFE4EC" />
  
  <!-- 耳朵 -->
  <circle cx="55" cy="65" r="22" fill="#FFB7C5" />
  <circle cx="145" cy="65" r="22" fill="#FFB7C5" />
  <circle cx="55" cy="65" r="12" fill="#FF9EB0" />
  <circle cx="145" cy="65" r="12" fill="#FF9EB0" />
  
  <!-- 脸 -->
  <ellipse cx="100" cy="110" rx="60" ry="52" fill="#FFF5F7" />
  
  <!-- 腮红 -->
  <ellipse cx="65" cy="120" rx="10" ry="7" fill="#FFB7C5" opacity="0.6" />
  <ellipse cx="135" cy="120" rx="10" ry="7" fill="#FFB7C5" opacity="0.6" />
  
  <!-- 眼睛 -->
  <circle cx="78" cy="102" r="7" fill="#5A4A42" />
  <circle cx="122" cy="102" r="7" fill="#5A4A42" />
  <circle cx="80" cy="100" r="2.5" fill="white" />
  <circle cx="124" cy="100" r="2.5" fill="white" />
  
  <!-- 眼镜 -->
  <circle cx="78" cy="102" r="12" fill="none" stroke="#7EC8E3" stroke-width="2.5" />
  <circle cx="122" cy="102" r="12" fill="none" stroke="#7EC8E3" stroke-width="2.5" />
  <line x1="90" y1="102" x2="110" y2="102" stroke="#7EC8E3" stroke-width="2.5" />
  
  <!-- 鼻子 -->
  <ellipse cx="100" cy="118" rx="5" ry="4" fill="#FF9EB0" />
  
  <!-- 嘴巴 -->
  <path d="M 92 128 Q 100 136 108 128" fill="none" stroke="#5A4A42" stroke-width="2.5" stroke-linecap="round" />
  
  <!-- 蝴蝶结 -->
  <path d="M 100 55 L 88 45 L 88 65 Z" fill="#FF85A2" />
  <path d="M 100 55 L 112 45 L 112 65 Z" fill="#FF85A2" />
  <circle cx="100" cy="55" r="5" fill="#FF6B8A" />
  
  <!-- 书本 -->
  <rect x="70" y="142" width="60" height="40" rx="4" fill="#A8E6CF" />
  <rect x="70" y="142" width="30" height="40" rx="4" fill="#7FD8B8" />
  <line x1="100" y1="142" x2="100" y2="182" stroke="#5FC7A2" stroke-width="2" />
  <line x1="78" y1="155" x2="92" y2="155" stroke="white" stroke-width="2" stroke-linecap="round" />
  <line x1="78" y1="165" x2="92" y2="165" stroke="white" stroke-width="2" stroke-linecap="round" />
  <line x1="108" y1="155" x2="122" y2="155" stroke="white" stroke-width="2" stroke-linecap="round" />
  <line x1="108" y1="165" x2="122" y2="165" stroke="white" stroke-width="2" stroke-linecap="round" />
  
  <!-- 小星星装饰 -->
  <path d="M 35 140 L 37 146 L 43 146 L 38 150 L 40 156 L 35 152 L 30 156 L 32 150 L 27 146 L 33 146 Z" fill="#FFD93D" />
  <path d="M 165 130 L 167 136 L 173 136 L 168 140 L 170 146 L 165 142 L 160 146 L 162 140 L 157 136 L 163 136 Z" fill="#FFD93D" />
  
  <!-- 小爱心 -->
  <path d="M 45 95 C 45 90 50 88 53 92 C 56 88 61 90 61 95 C 61 100 53 106 53 106 C 53 106 45 100 45 95 Z" fill="#FF85A2" />
  <path d="M 139 95 C 139 90 144 88 147 92 C 150 88 155 90 155 95 C 155 100 147 106 147 106 C 147 106 139 100 139 95 Z" fill="#FF85A2" />
</svg>
